# 3ds Max Wavefront OBJ Exporter v0.99 - (c)2007 guruware
# File Created: 18.05.2025 17:30:44

mtllib aaaaaaaaaaaaaaaaaaaaaaaaaaaaaaaaaaaaaaaaa ???.mtl

#
# object Box001
#

v  32.6648 0.0270 -14.8065
v  28.7636 31.0963 -13.0381
v  28.7636 31.0963 13.0381
v  32.6648 0.0270 14.8065
v  13.0381 31.0963 28.7636
v  19.9352 61.4525 9.0363
v  9.0363 61.4525 19.9352
v  13.0381 31.0817 -28.7636
v  9.0363 61.4525 -19.9352
v  19.9352 61.4525 -9.0363
v  33.6737 78.9271 15.2637
v  15.2638 78.9271 33.6736
v  33.6737 78.9271 -15.2640
v  15.2638 78.9271 -33.6739
v  29.1343 103.7723 -12.1842
v  29.1351 103.7721 12.1832
v  14.8065 0.0000 -32.6648
v  14.8065 -4.9415 -32.6648
v  0.0000 -11.7456 -50.3990
v  0.0000 -6.8041 -50.3990
v  36.2757 -6.7906 -36.2757
v  32.6648 -4.9146 -14.8065
v  36.2757 -11.7321 -36.2757
v  50.3990 -6.7771 0.0000
v  32.6648 -4.9146 14.8065
v  50.3990 -11.7186 0.0000
v  14.8065 0.0270 32.6648
v  36.2757 -6.7771 36.2757
v  14.8065 -4.9146 32.6648
v  36.2757 -11.7186 36.2757
v  0.0000 -6.7906 50.3990
v  0.0000 -11.7321 50.3990
v  94.3027 127.6200 24.4626
v  94.2995 127.6185 9.8188
v  99.8667 138.1457 11.6259
v  99.8676 138.1454 22.6550
v  0.0000 115.1452 12.1656
v  7.2253 118.2343 5.5144
v  7.2250 118.2349 -5.5147
v  0.0000 115.1452 -12.1659
v  -13.0381 31.0963 28.7636
v  -14.8065 0.0270 32.6648
v  -14.8065 0.0000 -32.6648
v  50.2114 137.1964 -5.4118
v  50.2116 137.1981 12.5556
v  43.2648 154.2086 5.5155
v  43.2645 154.2086 -5.5136
v  -28.7636 31.0963 13.0381
v  -28.7636 31.0963 -13.0381
v  -32.6648 0.0270 -14.8065
v  -32.6648 0.0270 14.8065
v  -70.7557 141.6098 -142.9075
v  -80.9963 152.6589 -98.7947
v  -57.6104 183.5456 -98.7947
v  -44.1978 176.6857 -142.9075
v  -19.9352 61.4525 9.0363
v  -9.0363 61.4525 19.9352
v  -9.0363 61.4525 -19.9352
v  -13.0381 31.0817 -28.7636
v  -19.9352 61.4525 -9.0363
v  -15.2638 78.9271 33.6736
v  -33.6737 78.9271 15.2637
v  -33.6737 78.9271 -15.2640
v  -15.2638 78.9271 -33.6739
v  -29.1343 103.7723 -12.1842
v  -29.1351 103.7721 12.1832
v  -14.8065 -4.9415 -32.6648
v  -36.2757 -6.7906 -36.2757
v  -36.2757 -11.7321 -36.2757
v  -32.6648 -4.9146 -14.8065
v  -50.3990 -6.7771 0.0000
v  -50.3990 -11.7186 0.0000
v  -32.6648 -4.9146 14.8065
v  -36.2757 -6.7771 36.2757
v  -36.2757 -11.7186 36.2757
v  -14.8065 -4.9146 32.6648
v  -82.0738 188.1717 -19.5515
v  -72.9501 194.9423 -23.1856
v  -72.9496 190.6781 -33.3570
v  -82.0746 183.3375 -31.0759
v  -7.2250 118.2349 -5.5147
v  -7.2253 118.2343 5.5144
v  -53.2251 144.2802 8.7311
v  -53.2250 144.2788 -8.7293
v  -37.1333 155.6421 -5.5136
v  -37.1337 155.6421 5.5155
v  -14.1968 22.2879 -69.5583
v  9.4912 29.5897 -69.5583
v  -17.1956 36.6883 -52.2330
v  7.7295 44.0088 -52.2330
v  -12.1837 106.0240 26.8784
v  12.1837 106.0240 26.8784
v  12.1837 106.0240 -26.8787
v  -12.1837 106.0240 -26.8787
v  11.5663 132.3683 -112.2664
v  -32.8737 120.6548 -112.2664
v  -33.2764 125.4774 -80.9100
v  1.8477 140.1839 -77.3147
v  -31.6012 72.8507 -88.9876
v  -62.6060 73.2328 -88.9876
v  -55.0828 83.9930 -61.8164
v  -27.7809 83.6565 -61.8164
# 102 vertices

vn 0.9922 0.1246 -0.0000
vn 0.9802 0.1979 -0.0000
vn 0.6923 0.2038 0.6923
vn 0.6775 0.2863 0.6775
vn 0.6922 0.2038 -0.6923
vn 0.6922 0.2037 -0.6924
vn 0.6775 0.2863 -0.6776
vn 0.6775 0.2863 -0.6775
vn 0.5500 -0.6284 0.5500
vn 0.7861 -0.6181 -0.0000
vn 0.5500 -0.6284 -0.5500
vn 0.9837 0.1797 -0.0000
vn 0.7676 0.0000 -0.6409
vn 0.2526 0.9336 -0.2540
vn 0.9861 0.0000 0.1659
vn -0.1659 0.0000 -0.9861
vn 0.3582 0.9336 -0.0000
vn 0.6409 0.0000 0.7676
vn 0.6409 0.0000 -0.7676
vn 0.2533 0.9336 0.2533
vn -0.1659 0.0000 0.9861
vn 0.9861 0.0000 -0.1659
vn 0.7676 0.0000 0.6409
vn 0.8840 -0.4675 -0.0001
vn 0.8840 -0.4674 -0.0001
vn 0.0000 1.0000 0.0000
vn -0.3931 0.9195 0.0001
vn -0.3932 0.9195 0.0000
vn 0.0000 1.0000 -0.0000
vn 0.0000 0.1246 0.9922
vn 0.0000 0.1979 0.9802
vn 0.0000 0.9336 -0.3582
vn 0.8459 -0.5334 0.0000
vn 0.8459 -0.5334 -0.0000
vn -0.7065 0.7077 0.0000
vn -0.7065 0.7078 0.0001
vn -0.2123 -0.9772 0.0001
vn 0.2730 0.9620 0.0000
vn 0.2730 0.9620 -0.0000
vn -0.9802 0.1979 -0.0000
vn -0.9922 0.1246 -0.0000
vn -0.7557 0.5722 -0.3187
vn -0.6775 0.2863 0.6775
vn -0.6923 0.2038 0.6923
vn -0.6775 0.2863 -0.6776
vn -0.6922 0.2037 -0.6924
vn -0.6922 0.2038 -0.6923
vn -0.6775 0.2863 -0.6775
vn -0.5500 -0.6284 0.5500
vn -0.7861 -0.6181 -0.0000
vn -0.5500 -0.6284 -0.5500
vn -0.9837 0.1797 -0.0000
vn -0.7676 0.0000 -0.6409
vn -0.2526 0.9336 -0.2540
vn -0.9861 0.0000 0.1659
vn 0.1659 0.0000 -0.9861
vn -0.3582 0.9336 -0.0000
vn -0.6409 0.0000 0.7676
vn -0.6409 0.0000 -0.7676
vn -0.2533 0.9336 0.2533
vn 0.1659 0.0000 0.9861
vn -0.9861 0.0000 -0.1659
vn 0.0000 0.9334 0.3588
vn -0.7676 0.0000 0.6409
vn -0.6425 0.7067 -0.2963
vn -0.6425 0.7066 -0.2964
vn 0.3932 0.9195 0.0000
vn 0.3931 0.9195 0.0001
vn -0.8595 -0.5111 -0.0000
vn -0.8595 -0.5112 0.0000
vn 0.7810 0.6245 0.0001
vn 0.7811 0.6245 0.0000
vn -0.8044 -0.5941 0.0000
vn -0.8721 -0.4512 0.1893
vn 0.7391 0.6736 0.0000
vn 0.7689 0.5896 -0.2472
vn 0.9602 0.2793 -0.0000
vn 0.7013 0.1280 0.7013
vn 0.7012 0.1279 -0.7014
vn 0.0000 0.2793 0.9602
vn -0.9602 0.2793 -0.0000
vn 0.0000 0.2791 -0.9603
vn -0.7013 0.1280 0.7013
vn -0.7012 0.1280 -0.7014
vn 0.0777 -0.8251 -0.5596
vn 0.0000 -0.8559 -0.5171
vn 0.1514 -0.7889 -0.5956
vn 0.2290 -0.7430 -0.6289
vn -0.9827 0.0331 0.1820
vn -0.9908 -0.1081 -0.0817
vn -0.1344 0.9134 0.3842
vn 0.0000 0.8759 0.4825
vn -0.1334 0.9132 0.3850
vn -0.2714 0.9241 0.2688
vn 0.9937 0.0677 -0.0889
vn 0.9688 0.2297 -0.0926
vn 0.0000 0.2432 0.9700
vn 0.6527 0.2533 0.7141
vn 0.6910 0.2119 0.6910
vn 0.6562 0.2097 -0.7248
vn 0.6847 0.2495 -0.6847
vn 0.4305 0.8230 0.3705
vn 0.0709 0.8730 0.4825
vn 0.3503 0.8979 -0.2665
vn 0.2798 0.7179 -0.6375
vn 0.0000 0.8499 -0.5269
vn 0.0000 0.2432 -0.9700
vn -0.1774 0.1777 -0.9680
vn 0.1963 0.0743 -0.9777
vn -0.3691 0.2227 0.9023
vn -0.1774 0.1777 0.9680
vn 0.2923 0.0096 -0.9563
vn 0.3500 0.1374 -0.9266
vn -0.2076 0.2712 0.9399
vn -0.1843 0.3106 0.9325
vn 0.0000 -0.6181 -0.7861
vn -0.6910 0.2119 0.6910
vn -0.6527 0.2533 0.7141
vn -0.6847 0.2495 -0.6847
vn -0.6562 0.2097 -0.7248
vn -0.0709 0.8730 0.4825
vn -0.4305 0.8230 0.3705
vn -0.2798 0.7179 -0.6375
vn -0.3503 0.8979 -0.2665
vn 0.0000 -0.6181 0.7861
vn 0.0000 0.8499 0.5269
vn 0.0969 0.1416 -0.9852
vn 0.1931 0.1544 -0.9690
vn 0.1931 0.1543 0.9690
vn 0.0969 0.1416 0.9852
vn 0.3571 -0.2510 -0.8997
vn 0.1820 -0.4910 -0.8519
vn -0.1522 0.4627 0.8733
vn -0.0716 0.5449 0.8354
vn 0.2849 -0.3799 -0.8800
vn 0.3151 -0.2386 -0.9186
vn 0.1974 -0.4603 -0.8656
vn 0.1352 -0.5682 -0.8117
vn -0.5348 -0.8405 0.0864
vn -0.5255 -0.8419 0.1227
vn -0.2294 0.2867 0.9301
vn -0.2234 0.1692 0.9599
vn -0.2191 0.1919 0.9566
vn -0.1972 0.3258 0.9246
vn 0.6011 0.7970 0.0588
vn 0.5928 0.8052 -0.0152
vn 0.0214 -0.3948 -0.9185
vn -0.0050 -0.4042 -0.9147
vn -0.8969 0.4353 -0.0785
vn -0.8426 0.5382 0.0202
vn -0.0387 0.2977 0.9539
vn 0.0040 0.3231 0.9463
vn 0.8714 -0.3678 0.3246
vn 0.8241 -0.5565 0.1054
vn 0.0791 -0.3337 -0.9393
vn 0.1006 -0.3265 -0.9398
vn -0.7500 -0.5171 0.4124
vn -0.7423 -0.5728 0.3476
vn -0.0419 0.1907 0.9808
vn -0.0551 0.1877 0.9807
vn 0.7406 0.5822 -0.3356
vn 0.7503 0.5437 -0.3762
vn -0.0596 -0.9885 0.1388
vn 0.0596 -0.9885 0.1388
vn 0.0000 -0.9336 0.3582
vn 0.1378 -0.9887 -0.0598
vn 0.3582 -0.9336 -0.0000
vn 0.1376 -0.9887 0.0602
vn 0.2526 -0.9336 0.2540
vn -0.1376 -0.9887 0.0602
vn -0.2526 -0.9336 0.2540
vn -0.3582 -0.9336 -0.0000
vn -0.1378 -0.9887 -0.0598
vn -0.2533 -0.9336 -0.2533
vn -0.0598 -0.9886 -0.1380
vn 0.0000 -0.9334 -0.3588
vn 0.0598 -0.9886 -0.1380
vn 0.2533 -0.9336 -0.2533
# 178 vertex normals

vt 0.6964 0.6807 0.0000
vt 0.6272 0.6548 0.0000
vt 0.6306 0.5800 0.0000
vt 0.6994 0.5537 0.0000
vt 0.5899 0.5342 0.0000
vt 0.5524 0.6100 0.0000
vt 0.5533 0.6092 0.0000
vt 0.5822 0.7065 0.0000
vt 0.5528 0.6250 0.0000
vt 0.5518 0.6212 0.0000
vt 0.8595 0.2122 0.0000
vt 0.8188 0.2312 0.0000
vt 0.7500 0.1708 0.0000
vt 0.7626 0.1282 0.0000
vt 0.8690 0.3490 0.0000
vt 0.8264 0.3355 0.0000
vt 0.7852 0.4451 0.0000
vt 0.7665 0.4040 0.0000
vt 0.7771 0.3114 0.0000
vt 0.7725 0.2615 0.0000
vt 0.6167 0.7529 0.0000
vt 0.6177 0.7716 0.0000
vt 0.5411 0.8088 0.0000
vt 0.5416 0.7979 0.0000
vt 0.6890 0.7565 0.0000
vt 0.7122 0.6883 0.0000
vt 0.6962 0.7653 0.0000
vt 0.7470 0.6192 0.0000
vt 0.7161 0.5482 0.0000
vt 0.7582 0.6197 0.0000
vt 0.6213 0.4684 0.0000
vt 0.6970 0.4775 0.0000
vt 0.6284 0.4519 0.0000
vt 0.7054 0.4701 0.0000
vt 0.5592 0.4161 0.0000
vt 0.5596 0.4049 0.0000
vt 0.3698 0.7838 0.0000
vt 0.3524 0.7510 0.0000
vt 0.3815 0.7406 0.0000
vt 0.3947 0.7656 0.0000
vt 0.7033 0.2604 0.0000
vt 0.7155 0.2794 0.0000
vt 0.7195 0.2962 0.0000
vt 0.7095 0.3183 0.0000
vt 0.5172 0.5308 0.0000
vt 0.4926 0.4627 0.0000
vt 0.4709 0.7467 0.0000
vt 0.1391 0.7382 0.0000
vt 0.2352 0.7614 0.0000
vt 0.2435 0.8075 0.0000
vt 0.1339 0.7986 0.0000
vt 0.1199 0.8698 0.0000
vt 0.2435 0.8525 0.0000
vt 0.2443 0.8742 0.0000
vt 0.1250 0.9054 0.0000
vt 0.3895 0.8111 0.0000
vt 0.3914 0.8441 0.0000
vt 0.4724 0.5732 0.0000
vt 0.4698 0.6485 0.0000
vt 0.3986 0.6672 0.0000
vt 0.4070 0.5406 0.0000
vt 0.3287 0.6444 0.0000
vt 0.2845 0.7558 0.0000
vt 0.1898 0.7273 0.0000
vt 0.2146 0.6109 0.0000
vt 0.5472 0.6098 0.0000
vt 0.5460 0.6088 0.0000
vt 0.5462 0.6249 0.0000
vt 0.5107 0.7041 0.0000
vt 0.5473 0.6211 0.0000
vt 0.5419 0.2357 0.0000
vt 0.6252 0.1385 0.0000
vt 0.6442 0.1789 0.0000
vt 0.5851 0.2485 0.0000
vt 0.5525 0.3719 0.0000
vt 0.5932 0.3522 0.0000
vt 0.6489 0.4547 0.0000
vt 0.6619 0.4110 0.0000
vt 0.6393 0.3203 0.0000
vt 0.6357 0.2715 0.0000
vt 0.4680 0.7652 0.0000
vt 0.3984 0.7430 0.0000
vt 0.3904 0.7511 0.0000
vt 0.3822 0.6731 0.0000
vt 0.3536 0.6015 0.0000
vt 0.3425 0.6009 0.0000
vt 0.3908 0.5336 0.0000
vt 0.4165 0.4651 0.0000
vt 0.4090 0.4569 0.0000
vt 0.4872 0.4458 0.0000
vt 0.7153 0.7961 0.0000
vt 0.6949 0.8194 0.0000
vt 0.6722 0.8020 0.0000
vt 0.6893 0.7763 0.0000
vt 0.6961 0.2989 0.0000
vt 0.6948 0.2817 0.0000
vt 0.8473 0.5603 0.0000
vt 0.9004 0.5971 0.0000
vt 0.8210 0.6869 0.0000
vt 0.7820 0.6685 0.0000
vt 0.9504 0.6498 0.0000
vt 0.9662 0.6760 0.0000
vt 0.8638 0.7480 0.0000
vt 0.8535 0.7238 0.0000
vt 0.7351 0.8227 0.0000
vt 0.7518 0.8469 0.0000
vt 0.5666 0.0869 0.0000
vt 0.6220 0.1385 0.0000
vt 0.5427 0.2167 0.0000
vt 0.4968 0.1791 0.0000
vt 0.4229 0.0000 0.0000
vt 0.4403 0.0706 0.0000
vt 0.3885 0.1131 0.0000
vt 0.3500 0.0664 0.0000
vt 0.4880 0.0907 0.0000
vt 0.4494 0.1518 0.0000
vt 0.6706 0.2317 0.0000
vt 0.7323 0.2270 0.0000
vt 0.7410 0.3493 0.0000
vt 0.6801 0.3529 0.0000
vt 0.1622 0.9690 0.0000
vt 0.2588 0.9102 0.0000
vt 0.3879 0.8784 0.0000
vt 1.0000 0.7380 0.0000
vt 0.8891 0.7923 0.0000
vt 0.7729 0.8693 0.0000
vt 0.2894 0.4476 0.0000
vt 0.3695 0.4921 0.0000
vt 0.0565 0.4228 0.0000
vt 0.0000 0.3207 0.0000
vt 0.1280 0.2931 0.0000
vt 0.1965 0.3393 0.0000
vt 0.2487 0.3972 0.0000
vt 0.1078 0.5183 0.0000
vt 0.4229 0.3203 0.0000
vt 0.4848 0.3803 0.0000
vt 0.2805 0.2289 0.0000
vt 0.2223 0.1821 0.0000
vt 0.3453 0.2610 0.0000
# 139 texture coords

o Box001
g Box001
usemtl Material__2
s 2
f 1/1/1 2/2/2 3/3/2 
f 3/3/2 4/4/1 1/1/1 
s 4
f 5/5/3 3/3/3 6/6/4 
f 6/6/4 7/7/4 5/5/3 
f 2/2/5 8/8/6 9/9/7 
f 9/9/7 10/10/8 2/2/5 
s off
f 6/11/9 11/12/9 12/13/9 
f 12/13/9 7/14/9 6/11/9 
f 10/15/10 13/16/10 11/12/10 
f 11/12/10 6/11/10 10/15/10 
f 9/17/11 14/18/11 13/16/11 
f 13/16/11 10/15/11 9/17/11 
f 15/19/12 16/20/12 11/12/12 
f 11/12/12 13/16/12 15/19/12 
f 17/21/13 18/22/13 19/23/13 
f 19/23/13 20/24/13 17/21/13 
f 17/21/14 1/1/14 21/25/14 
f 1/1/15 22/26/15 23/27/15 
f 23/27/15 21/25/15 1/1/15 
f 18/22/16 17/21/16 21/25/16 
f 21/25/16 23/27/16 18/22/16 
f 1/1/17 4/4/17 24/28/17 
f 4/4/18 25/29/18 26/30/18 
f 26/30/18 24/28/18 4/4/18 
f 22/26/19 1/1/19 24/28/19 
f 24/28/19 26/30/19 22/26/19 
f 4/4/20 27/31/20 28/32/20 
f 27/31/21 29/33/21 30/34/21 
f 30/34/21 28/32/21 27/31/21 
f 25/29/22 4/4/22 28/32/22 
f 28/32/22 30/34/22 25/29/22 
f 29/33/23 27/31/23 31/35/23 
f 31/35/23 32/36/23 29/33/23 
f 33/37/24 34/38/24 35/39/24 
f 35/39/25 36/40/25 33/37/25 
s 1
f 37/41/26 38/42/27 39/43/28 
f 39/43/28 40/44/29 37/41/26 
s 2
f 27/31/30 5/5/31 41/45/31 
f 41/45/31 42/46/30 27/31/30 
s off
f 17/21/32 20/24/32 43/47/32 
f 15/48/33 44/49/33 45/50/33 
f 45/50/34 16/51/34 15/48/34 
f 38/52/35 46/53/35 47/54/35 
f 47/54/36 39/55/36 38/52/36 
f 34/38/37 33/37/37 45/50/37 
f 45/50/37 44/49/37 34/38/37 
f 36/56/38 35/57/38 47/54/38 
f 47/54/39 46/53/39 36/56/39 
s 2
f 48/58/40 49/59/40 50/60/41 
f 50/60/41 51/61/41 48/58/40 
f 52/62/42 53/63/42 54/64/42 
f 54/64/42 55/65/42 52/62/42 
s 4
f 56/66/43 48/58/44 41/45/44 
f 41/45/44 57/67/43 56/66/43 
f 58/68/45 59/69/46 49/59/47 
f 49/59/47 60/70/48 58/68/45 
s off
f 56/71/49 57/72/49 61/73/49 
f 61/73/49 62/74/49 56/71/49 
f 60/75/50 56/71/50 62/74/50 
f 62/74/50 63/76/50 60/75/50 
f 58/77/51 60/75/51 63/76/51 
f 63/76/51 64/78/51 58/77/51 
f 65/79/52 63/76/52 62/74/52 
f 62/74/52 66/80/52 65/79/52 
f 43/47/53 20/24/53 19/23/53 
f 19/23/53 67/81/53 43/47/53 
f 43/47/54 68/82/54 50/60/54 
f 50/60/55 68/82/55 69/83/55 
f 69/83/55 70/84/55 50/60/55 
f 67/81/56 69/83/56 68/82/56 
f 68/82/56 43/47/56 67/81/56 
f 50/60/57 71/85/57 51/61/57 
f 51/61/58 71/85/58 72/86/58 
f 72/86/58 73/87/58 51/61/58 
f 70/84/59 72/86/59 71/85/59 
f 71/85/59 50/60/59 70/84/59 
f 51/61/60 74/88/60 42/46/60 
f 42/46/61 74/88/61 75/89/61 
f 75/89/61 76/90/61 42/46/61 
f 73/87/62 75/89/62 74/88/62 
f 74/88/62 51/61/62 73/87/62 
f 42/46/63 31/35/63 27/31/63 
f 76/90/64 32/36/64 31/35/64 
f 31/35/64 42/46/64 76/90/64 
f 77/91/65 78/92/65 79/93/65 
f 79/93/66 80/94/66 77/91/66 
s 1
f 81/95/67 82/96/68 37/41/26 
f 37/41/26 40/44/29 81/95/67 
s off
f 65/97/69 66/98/69 83/99/69 
f 83/99/70 84/100/70 65/97/70 
f 82/101/71 81/102/71 85/103/71 
f 85/103/72 86/104/72 82/101/72 
f 80/94/73 84/100/73 83/99/73 
f 83/99/74 77/91/74 80/94/74 
f 78/105/75 86/104/75 85/103/75 
f 85/103/76 79/106/76 78/105/76 
s 2
f 10/10/77 6/6/77 3/3/2 
f 3/3/2 2/2/2 10/10/77 
s 4
f 27/31/78 4/4/78 3/3/3 
f 3/3/3 5/5/3 27/31/78 
f 1/1/79 17/21/79 8/8/6 
f 8/8/6 2/2/5 1/1/79 
s 2
f 7/7/80 57/67/80 41/45/31 
f 41/45/31 5/5/31 7/7/80 
f 56/66/81 60/70/81 49/59/40 
f 49/59/40 48/58/40 56/66/81 
f 59/69/82 58/68/82 9/9/82 
f 9/9/82 8/8/82 59/69/82 
s 4
f 51/61/83 42/46/83 41/45/44 
f 41/45/44 48/58/44 51/61/83 
f 43/47/84 50/60/84 49/59/47 
f 49/59/47 59/69/46 43/47/84 
s 1
f 17/107/85 43/108/86 87/109/87 
f 87/109/87 88/110/88 17/107/85 
s off
f 43/111/89 59/112/89 89/113/89 
f 89/113/90 87/114/90 43/111/90 
s 1
f 59/112/91 8/115/92 90/116/93 
f 90/116/93 89/113/94 59/112/91 
s off
f 8/115/95 17/107/95 88/110/95 
f 88/110/96 90/116/96 8/115/96 
f 91/117/97 61/73/97 12/13/97 
f 12/13/97 92/118/97 91/117/97 
f 16/20/98 92/118/98 12/13/98 
f 12/13/99 11/12/99 16/20/99 
f 93/119/100 15/19/100 13/16/100 
f 13/16/101 14/18/101 93/119/101 
f 92/118/102 16/20/102 38/42/102 
f 38/42/103 37/41/103 92/118/103 
f 15/19/104 93/119/104 40/44/104 
f 40/44/105 39/43/105 15/19/105 
f 94/120/106 40/44/106 93/119/106 
f 14/18/107 64/78/107 94/120/107 
f 94/120/107 93/119/107 14/18/107 
f 15/121/108 39/55/108 47/54/108 
f 47/54/109 44/122/109 15/121/109 
f 16/51/110 45/50/110 46/53/110 
f 46/53/111 38/52/111 16/51/111 
f 47/54/112 35/57/112 34/123/112 
f 34/123/113 44/122/113 47/54/113 
f 33/37/114 36/56/114 46/53/114 
f 46/53/115 45/50/115 33/37/115 
f 58/77/116 64/78/116 14/18/116 
f 14/18/116 9/17/116 58/77/116 
f 66/80/117 62/74/117 61/73/117 
f 61/73/118 91/117/118 66/80/118 
f 94/120/119 64/78/119 63/76/119 
f 63/76/120 65/79/120 94/120/120 
f 91/117/121 37/41/121 82/96/121 
f 82/96/122 66/80/122 91/117/122 
f 65/79/123 81/95/123 40/44/123 
f 40/44/124 94/120/124 65/79/124 
f 57/72/125 7/14/125 12/13/125 
f 12/13/125 61/73/125 57/72/125 
f 92/118/126 37/41/126 91/117/126 
f 65/124/127 84/125/127 85/103/127 
f 85/103/128 81/102/128 65/124/128 
f 66/98/129 82/101/129 86/104/129 
f 86/104/130 83/99/130 66/98/130 
f 85/103/131 84/125/131 80/126/131 
f 80/126/132 79/106/132 85/103/132 
f 77/91/133 83/99/133 86/104/133 
f 86/104/134 78/105/134 77/91/134 
s 4
f 52/62/135 55/65/136 95/127/137 
f 95/127/137 96/128/138 52/62/135 
s off
f 53/129/139 52/130/139 96/131/139 
f 96/131/140 97/132/140 53/129/140 
s 4
f 98/133/141 54/134/142 53/129/143 
f 53/129/143 97/132/144 98/133/141 
s off
f 95/127/145 55/65/145 54/134/145 
f 54/134/146 98/133/146 95/127/146 
s 4
f 96/128/138 95/127/137 99/135/147 
f 99/135/147 100/136/148 96/128/138 
s off
f 101/137/149 97/132/149 96/131/149 
f 96/131/150 100/138/150 101/137/150 
s 4
f 102/139/151 98/133/141 97/132/144 
f 97/132/144 101/137/152 102/139/151 
s off
f 95/127/153 98/133/153 102/139/153 
f 102/139/154 99/135/154 95/127/154 
s 4
f 87/109/155 100/136/148 99/135/147 
f 99/135/147 88/110/156 87/109/155 
s off
f 89/113/157 101/137/157 100/138/157 
f 100/138/158 87/114/158 89/113/158 
s 4
f 102/139/151 101/137/152 89/113/159 
f 89/113/159 90/116/160 102/139/151 
s off
f 99/135/161 102/139/161 90/116/161 
f 90/116/162 88/110/162 99/135/162 
s 8
f 18/22/163 67/81/164 19/23/165 
f 73/87/166 72/86/167 70/84/168 
f 70/84/168 69/83/169 67/81/164 
f 22/26/170 70/84/168 67/81/164 
f 67/81/164 18/22/163 22/26/170 
f 18/22/163 23/27/171 22/26/170 
f 22/26/170 26/30/172 25/29/173 
f 25/29/173 30/34/174 29/33/175 
f 29/33/175 32/36/176 76/90/177 
f 76/90/177 75/89/178 73/87/166 
f 29/33/175 76/90/177 73/87/166 
f 73/87/166 25/29/173 29/33/175 
f 25/29/173 73/87/166 70/84/168 
f 70/84/168 22/26/170 25/29/173 
# 200 faces

