# 3ds Max Wavefront OBJ Exporter v0.99 - (c)2007 guruware
# File Created: 18.05.2025 17:03:28

mtllib aaaaaaaa.mtl

#
# object Box001
#

v  27.9797 -7.0373 53.4978
v  49.6890 -13.8904 53.5480
v  53.2370 8.0181 59.6875
v  28.9010 8.9025 59.9352
v  31.1015 62.5376 31.7812
v  40.5062 59.6342 -3.8489
v  41.7790 83.4413 -2.5479
v  34.9979 81.6981 31.3860
v  31.1015 62.0335 -34.0783
v  0.0000 62.0926 -44.9767
v  0.0000 82.3145 -41.4353
v  33.5150 82.4647 -30.4854
v  14.4432 113.9697 -15.6848
v  15.6086 116.2791 2.8878
v  37.1701 99.8474 -1.3895
v  31.1015 99.8160 -24.3804
v  0.0000 114.0643 20.1405
v  0.0000 102.2046 39.3646
v  10.1998 100.1572 38.3525
v  14.4432 110.5285 21.0298
v  22.6338 76.8460 49.9342
v  20.8384 66.2158 50.2489
v  31.1015 96.9253 26.2302
v  18.2017 87.8092 45.6454
v  0.0000 84.8816 50.0067
v  0.0000 72.9734 53.6888
v  28.4689 7.0243 -31.1015
v  38.8990 -2.2602 0.1982
v  0.0000 -10.9897 -1.7126
v  0.0000 0.0000 -42.1151
v  0.0000 118.7221 3.2933
v  28.4694 6.9798 31.2508
v  32.2554 28.4715 37.8118
v  0.0000 22.8138 43.9627
v  0.0000 -0.0665 39.6320
v  0.0000 60.6823 55.4743
v  0.0000 53.1239 40.4563
v  0.0000 99.8722 -34.9283
v  0.0000 117.0652 -13.0214
v  50.0388 34.9965 0.9132
v  37.8092 34.1539 -35.1857
v  0.0000 34.3415 -45.3197
v  37.8092 34.6520 35.3459
v  0.0000 29.2613 44.3481
v  36.3816 28.0557 -34.8707
v  48.4403 27.2791 0.8062
v  44.0198 55.4394 50.0089
v  45.4890 42.1459 48.4496
v  57.0491 43.4324 48.1165
v  54.9513 53.9628 49.2071
v  44.8044 37.8909 41.8477
v  38.7689 61.2114 35.3625
v  58.2910 41.8121 20.6584
v  56.1526 59.3320 22.8908
v  30.0317 -0.1399 36.3431
v  33.2322 18.1796 43.9713
v  52.7677 -11.7540 26.3399
v  59.1059 19.7967 32.7583
v  0.0000 27.0940 -45.1613
v  -27.9797 -7.0373 53.4978
v  -28.9010 8.9025 59.9352
v  -53.2370 8.0181 59.6875
v  -49.6890 -13.8904 53.5480
v  -31.1015 62.5376 31.7812
v  -34.9979 81.6981 31.3860
v  -41.7790 83.4413 -2.5479
v  -40.5062 59.6342 -3.8489
v  -31.1015 62.0335 -34.0783
v  -33.5150 82.4647 -30.4854
v  -14.4432 113.9697 -15.6848
v  -31.1015 99.8160 -24.3804
v  -37.1701 99.8474 -1.3895
v  -15.6086 116.2791 2.8878
v  -14.4432 110.5285 21.0298
v  -10.1998 100.1572 38.3525
v  -20.8384 66.2158 50.2489
v  -22.6338 76.8460 49.9342
v  -31.1015 96.9253 26.2302
v  -18.2017 87.8092 45.6454
v  -28.4689 7.0243 -31.1015
v  -38.8990 -2.2602 0.1982
v  -28.4694 6.9798 31.2508
v  -32.2554 28.4715 37.8118
v  -37.8092 34.1539 -35.1857
v  -50.0388 34.9965 0.9132
v  -37.8092 34.6520 35.3459
v  -48.4403 27.2791 0.8062
v  -36.3816 28.0557 -34.8707
v  -44.0198 55.4394 50.0089
v  -54.9513 53.9628 49.2071
v  -57.0491 43.4324 48.1165
v  -45.4890 42.1459 48.4496
v  -38.7689 61.2114 35.3625
v  -44.8044 37.8909 41.8477
v  -58.2910 41.8121 20.6584
v  -56.1526 59.3320 22.8908
v  -33.2322 18.1796 43.9713
v  -30.0317 -0.1399 36.3431
v  -52.7677 -11.7540 26.3399
v  -59.1059 19.7967 32.7583
# 100 vertices

vn -0.7284 -0.5724 0.3767
vn 0.3751 -0.7924 0.4810
vn 0.5636 0.2772 0.7782
vn -0.5975 0.3335 0.7292
vn 0.6269 0.1473 0.7651
vn 0.9488 0.2444 -0.2001
vn 0.9946 0.1018 -0.0217
vn 0.9019 0.1180 0.4155
vn 0.6729 0.1304 -0.7281
vn 0.0000 0.1128 -0.9936
vn -0.0000 0.2534 -0.9673
vn 0.7131 0.1755 -0.6787
vn 0.3178 0.8651 -0.3880
vn 0.4032 0.9110 0.0867
vn 0.8356 0.5492 0.0134
vn 0.6342 0.5449 -0.5485
vn 0.0000 0.9130 0.4079
vn 0.0000 0.7134 0.7007
vn 0.2780 0.6904 0.6679
vn 0.3739 0.8365 0.4007
vn 0.5363 0.1848 0.8236
vn 0.5137 -0.4181 0.7492
vn 0.7162 0.5678 0.4057
vn 0.3730 0.5138 0.7726
vn 0.0000 0.4060 0.9139
vn 0.0000 0.2070 0.9783
vn 0.5497 -0.5758 -0.6052
vn 0.5183 -0.8098 -0.2750
vn 0.0000 -0.9999 -0.0125
vn 0.0000 -0.6376 -0.7704
vn 0.0000 0.9963 0.0856
vn -0.4474 -0.7459 0.4935
vn 0.2646 0.2007 0.9432
vn -0.0000 -0.1606 0.9870
vn 0.0000 -0.6776 0.7354
vn 0.0000 -0.4932 0.8699
vn 0.0000 -0.4059 0.9139
vn 0.0000 0.5412 -0.8409
vn 0.0000 0.9387 -0.3447
vn 0.9800 -0.1047 -0.1694
vn 0.7159 -0.0100 -0.6981
vn 0.0000 -0.0094 -1.0000
vn 0.3632 -0.4713 0.8037
vn 0.0000 0.0544 0.9985
vn 0.6545 -0.2676 -0.7071
vn 0.9773 -0.1210 -0.1739
vn -0.4620 0.4297 0.7758
vn -0.4901 -0.4788 0.7284
vn 0.6980 -0.4134 0.5847
vn 0.5814 0.4641 0.6682
vn -0.2631 -0.8328 0.4871
vn -0.2417 0.7907 0.5624
vn 0.9045 -0.4150 -0.0982
vn 0.7272 0.6782 -0.1058
vn -0.8624 -0.4024 -0.3072
vn -0.5425 0.6198 0.5670
vn 0.4586 -0.8415 -0.2855
vn 0.8615 0.4872 0.1430
vn 0.0000 -0.1000 -0.9950
vn 0.7284 -0.5724 0.3767
vn 0.5975 0.3335 0.7292
vn -0.5636 0.2772 0.7782
vn -0.3751 -0.7924 0.4810
vn -0.6269 0.1473 0.7651
vn -0.9019 0.1180 0.4155
vn -0.9946 0.1018 -0.0217
vn -0.9488 0.2444 -0.2001
vn -0.6729 0.1304 -0.7281
vn -0.7131 0.1755 -0.6787
vn -0.3178 0.8651 -0.3880
vn -0.6342 0.5449 -0.5485
vn -0.8356 0.5492 0.0134
vn -0.4032 0.9110 0.0867
vn -0.3739 0.8365 0.4007
vn -0.2780 0.6904 0.6679
vn -0.5137 -0.4181 0.7492
vn -0.5363 0.1848 0.8236
vn -0.7162 0.5678 0.4057
vn -0.3730 0.5138 0.7726
vn -0.5497 -0.5758 -0.6052
vn -0.5183 -0.8098 -0.2750
vn 0.4474 -0.7459 0.4935
vn -0.2646 0.2007 0.9432
vn -0.7159 -0.0100 -0.6981
vn -0.9800 -0.1047 -0.1694
vn -0.3632 -0.4713 0.8037
vn -0.9773 -0.1210 -0.1739
vn -0.6545 -0.2676 -0.7071
vn 0.4620 0.4297 0.7758
vn -0.5814 0.4641 0.6682
vn -0.6980 -0.4134 0.5847
vn 0.4901 -0.4788 0.7284
vn 0.2417 0.7907 0.5624
vn 0.2631 -0.8328 0.4871
vn -0.9045 -0.4150 -0.0982
vn -0.7272 0.6782 -0.1058
vn 0.5425 0.6198 0.5670
vn 0.8624 -0.4024 -0.3072
vn -0.4586 -0.8415 -0.2855
vn -0.8615 0.4872 0.1430
# 100 vertex normals

vt 0.1407 0.5345 0.0000
vt 0.1833 0.4854 0.0000
vt 0.2260 0.5191 0.0000
vt 0.1886 0.5786 0.0000
vt 0.6434 0.2404 0.0000
vt 0.7672 0.2626 0.0000
vt 0.7467 0.3263 0.0000
vt 0.6449 0.3020 0.0000
vt 0.8655 0.3027 0.0000
vt 0.9648 0.3454 0.0000
vt 0.9207 0.4182 0.0000
vt 0.8319 0.3521 0.0000
vt 0.7626 0.4558 0.0000
vt 0.7012 0.4472 0.0000
vt 0.7332 0.3709 0.0000
vt 0.7977 0.3925 0.0000
vt 0.6235 0.4616 0.0000
vt 0.5620 0.4037 0.0000
vt 0.5863 0.3812 0.0000
vt 0.6436 0.4196 0.0000
vt 0.5800 0.2878 0.0000
vt 0.5763 0.2570 0.0000
vt 0.6522 0.3516 0.0000
vt 0.5804 0.3273 0.0000
vt 0.5221 0.3378 0.0000
vt 0.5087 0.2848 0.0000
vt 0.8888 0.1435 0.0000
vt 0.7932 0.1146 0.0000
vt 0.8369 0.0029 0.0000
vt 0.9711 0.0889 0.0000
vt 0.6875 0.4937 0.0000
vt 0.7120 0.0900 0.0000
vt 0.6778 0.1437 0.0000
vt 0.6089 0.0621 0.0000
vt 0.6774 0.0000 0.0000
vt 0.5128 0.2298 0.0000
vt 0.5539 0.1758 0.0000
vt 0.8601 0.4714 0.0000
vt 0.7569 0.5019 0.0000
vt 0.7598 0.1949 0.0000
vt 0.8775 0.2198 0.0000
vt 0.9980 0.2412 0.0000
vt 0.6904 0.1672 0.0000
vt 0.5894 0.0919 0.0000
vt 0.8816 0.2102 0.0000
vt 0.7640 0.1882 0.0000
vt 0.9338 0.6206 0.0000
vt 0.9076 0.5676 0.0000
vt 0.9351 0.5667 0.0000
vt 0.9461 0.5877 0.0000
vt 0.8189 0.5747 0.0000
vt 0.8643 0.5708 0.0000
vt 0.8966 0.6619 0.0000
vt 0.8644 0.6880 0.0000
vt 0.7769 0.4979 0.0000
vt 0.8359 0.5051 0.0000
vt 0.9586 0.8190 0.0000
vt 0.9094 0.7873 0.0000
vt 0.9425 0.7359 0.0000
vt 0.9852 0.7669 0.0000
vt 0.8843 0.5264 0.0000
vt 0.9696 0.6738 0.0000
vt 0.9989 0.7040 0.0000
vt 0.7538 0.5060 0.0000
vt 0.7846 0.5515 0.0000
vt 0.0832 0.6161 0.0000
vt 0.0974 0.5822 0.0000
vt 0.1507 0.6379 0.0000
vt 0.1276 0.6767 0.0000
vt 0.0000 0.6184 0.0000
vt 0.0260 0.5456 0.0000
vt 0.1544 0.7916 0.0000
vt 0.2062 0.7158 0.0000
vt 0.2876 0.7612 0.0000
vt 0.2339 0.8371 0.0000
vt 0.0852 0.4973 0.0000
vt 0.2501 0.6400 0.0000
vt 0.3137 0.6800 0.0000
vt 1.0000 0.1956 0.0000
vt 0.6885 0.6112 0.0000
vt 0.6492 0.5595 0.0000
vt 0.7074 0.5324 0.0000
vt 0.7345 0.5702 0.0000
vt 0.3603 0.2101 0.0000
vt 0.3810 0.2678 0.0000
vt 0.2956 0.3282 0.0000
vt 0.2531 0.2768 0.0000
vt 0.1767 0.3506 0.0000
vt 0.2262 0.3838 0.0000
vt 0.1682 0.4781 0.0000
vt 0.1004 0.4269 0.0000
vt 0.3288 0.4543 0.0000
vt 0.2728 0.4086 0.0000
vt 0.3247 0.3646 0.0000
vt 0.3826 0.4236 0.0000
vt 0.4599 0.4083 0.0000
vt 0.4258 0.3767 0.0000
vt 0.4649 0.3200 0.0000
vt 0.4957 0.3320 0.0000
vt 0.4289 0.2013 0.0000
vt 0.4365 0.2313 0.0000
vt 0.3926 0.3167 0.0000
vt 0.4506 0.2679 0.0000
vt 0.5086 0.2562 0.0000
vt 0.5018 0.2022 0.0000
vt 0.0965 0.2115 0.0000
vt 0.0000 0.1910 0.0000
vt 0.0930 0.0618 0.0000
vt 0.1747 0.1494 0.0000
vt 0.4124 0.4617 0.0000
vt 0.2412 0.0963 0.0000
vt 0.2399 0.0000 0.0000
vt 0.3266 0.0320 0.0000
vt 0.2930 0.1332 0.0000
vt 0.4778 0.1526 0.0000
vt 0.4198 0.1174 0.0000
vt 0.3512 0.4950 0.0000
vt 0.2442 0.5050 0.0000
vt 0.1350 0.2782 0.0000
vt 0.2349 0.2115 0.0000
vt 0.0310 0.3425 0.0000
vt 0.2899 0.1596 0.0000
vt 0.3559 0.0524 0.0000
vt 0.2287 0.2070 0.0000
vt 0.1276 0.2708 0.0000
vt 0.4858 0.7509 0.0000
vt 0.4534 0.7442 0.0000
vt 0.4459 0.7206 0.0000
vt 0.4695 0.7106 0.0000
vt 0.5017 0.6483 0.0000
vt 0.5700 0.7342 0.0000
vt 0.5371 0.7460 0.0000
vt 0.4818 0.6830 0.0000
vt 0.4208 0.6443 0.0000
vt 0.4193 0.5841 0.0000
vt 0.6154 0.8865 0.0000
vt 0.5514 0.8676 0.0000
vt 0.5597 0.8162 0.0000
vt 0.6326 0.8218 0.0000
vt 0.4419 0.7010 0.0000
vt 0.4887 0.7964 0.0000
vt 0.4852 0.8330 0.0000
vt 0.4350 0.5441 0.0000
vt 0.5335 0.6140 0.0000
vt 0.5978 0.6652 0.0000
vt 0.5839 0.5902 0.0000
vt 0.6360 0.6506 0.0000
vt 0.6677 0.7190 0.0000
vt 0.6029 0.7396 0.0000
vt 0.4197 0.4567 0.0000
vt 0.5000 0.4273 0.0000
vt 0.5230 0.5133 0.0000
vt 0.7155 0.6681 0.0000
vt 0.5786 0.4227 0.0000
vt 0.6027 0.4899 0.0000
vt 0.0123 0.3008 0.0000
# 156 texture coords

o Box001
g Box001
usemtl wire_143225087
s 12
f 1/1/1 2/2/2 3/3/3 
f 3/3/3 4/4/4 1/1/1 
f 5/5/5 6/6/6 7/7/7 
f 7/7/7 8/8/8 5/5/5 
s 10
f 9/9/9 10/10/10 11/11/11 
f 11/11/11 12/12/12 9/9/9 
s 8
f 13/13/13 14/14/14 15/15/15 
f 15/15/15 16/16/16 13/13/13 
s 9
f 17/17/17 18/18/18 19/19/19 
f 19/19/19 20/20/20 17/17/17 
s 12
f 8/8/8 21/21/21 22/22/22 
f 22/22/22 5/5/5 8/8/8 
s 8
f 23/23/23 20/20/20 19/19/19 
f 19/19/19 24/24/24 23/23/23 
s 10
f 19/19/19 18/18/18 25/25/25 
f 25/25/25 24/24/24 19/19/19 
f 24/24/24 25/25/25 26/26/26 
f 26/26/26 21/21/21 24/24/24 
s 12
f 16/16/16 15/15/15 7/7/7 
f 7/7/7 12/12/12 16/16/16 
f 8/8/8 23/23/23 24/24/24 
f 24/24/24 21/21/21 8/8/8 
s 9
f 27/27/27 28/28/28 29/29/29 
f 29/29/29 30/30/30 27/27/27 
f 17/17/17 20/20/20 14/14/14 
f 14/14/14 31/31/31 17/17/17 
s 10
f 32/32/32 33/33/33 34/34/34 
f 34/34/34 35/35/35 32/32/32 
f 22/22/22 21/21/21 26/26/26 
f 26/26/26 36/36/36 22/22/22 
s 8
f 37/37/37 5/5/5 22/22/22 
f 22/22/22 36/36/36 37/37/37 
s 10
f 13/13/13 16/16/16 38/38/38 
f 38/38/38 39/39/39 13/13/13 
f 16/16/16 12/12/12 11/11/11 
f 11/11/11 38/38/38 16/16/16 
s 12
f 9/9/9 6/6/6 40/40/40 
f 40/40/40 41/41/41 9/9/9 
s 10
f 10/10/10 9/9/9 41/41/41 
f 41/41/41 42/42/42 10/10/10 
f 43/43/43 5/5/5 37/37/37 
f 37/37/37 44/44/44 43/43/43 
s 12
f 27/27/27 45/45/45 46/46/46 
f 46/46/46 28/28/28 27/27/27 
f 6/6/6 9/9/9 12/12/12 
f 12/12/12 7/7/7 6/6/6 
s 8
f 20/20/20 23/23/23 15/15/15 
f 15/15/15 14/14/14 20/20/20 
s 12
f 23/23/23 8/8/8 7/7/7 
f 7/7/7 15/15/15 23/23/23 
s 9
f 32/32/32 35/35/35 29/29/29 
f 29/29/29 28/28/28 32/32/32 
f 14/14/14 13/13/13 39/39/39 
f 39/39/39 31/31/31 14/14/14 
s 12
f 47/47/47 48/48/48 49/49/49 
f 49/49/49 50/50/50 47/47/47 
s 8
f 43/51/43 51/52/51 52/53/52 
f 52/53/52 5/54/5 43/51/43 
f 43/51/43 40/55/40 53/56/53 
f 53/56/53 51/52/51 43/51/43 
f 40/57/40 6/58/6 54/59/54 
f 54/59/54 53/60/53 40/57/40 
f 5/54/5 52/53/52 54/59/54 
f 54/59/54 6/58/6 5/54/5 
f 51/52/51 48/48/48 47/47/47 
f 47/47/47 52/53/52 51/52/51 
f 49/61/49 48/48/48 51/52/51 
f 51/52/51 53/56/53 49/61/49 
f 50/62/50 49/63/49 53/60/53 
f 53/60/53 54/59/54 50/62/50 
f 52/53/52 47/47/47 50/62/50 
f 50/62/50 54/59/54 52/53/52 
s 12
f 46/64/46 40/55/40 43/51/43 
f 43/51/43 33/65/33 46/64/46 
s 10
f 33/33/33 43/43/43 44/44/44 
f 44/44/44 34/34/34 33/33/33 
s 12
f 41/41/41 40/40/40 46/46/46 
f 46/46/46 45/45/45 41/41/41 
s 8
f 32/66/32 55/67/55 56/68/56 
f 56/68/56 33/69/33 32/66/32 
f 32/66/32 28/70/28 57/71/57 
f 57/71/57 55/67/55 32/66/32 
f 46/72/46 58/73/58 57/74/57 
f 57/74/57 28/75/28 46/72/46 
f 33/69/33 56/68/56 58/73/58 
f 58/73/58 46/72/46 33/69/33 
f 55/67/55 1/1/1 4/4/4 
f 4/4/4 56/68/56 55/67/55 
f 57/71/57 2/76/2 1/1/1 
f 1/1/1 55/67/55 57/71/57 
f 58/73/58 3/77/3 2/78/2 
f 2/78/2 57/74/57 58/73/58 
f 4/4/4 3/77/3 58/73/58 
f 58/73/58 56/68/56 4/4/4 
s 10
f 59/79/59 45/45/45 27/27/27 
f 27/27/27 30/30/30 59/79/59 
f 42/42/42 41/41/41 45/45/45 
f 45/45/45 59/79/59 42/42/42 
s 12
f 60/80/60 61/81/61 62/82/62 
f 62/82/62 63/83/63 60/80/60 
f 64/84/64 65/85/65 66/86/66 
f 66/86/66 67/87/67 64/84/64 
s 10
f 68/88/68 69/89/69 11/90/11 
f 11/90/11 10/91/10 68/88/68 
s 8
f 70/92/70 71/93/71 72/94/72 
f 72/94/72 73/95/73 70/92/70 
s 9
f 17/96/17 74/97/74 75/98/75 
f 75/98/75 18/99/18 17/96/17 
s 12
f 65/85/65 64/84/64 76/100/76 
f 76/100/76 77/101/77 65/85/65 
s 8
f 78/102/78 79/103/79 75/98/75 
f 75/98/75 74/97/74 78/102/78 
s 10
f 75/98/75 79/103/79 25/104/25 
f 25/104/25 18/99/18 75/98/75 
f 79/103/79 77/101/77 26/105/26 
f 26/105/26 25/104/25 79/103/79 
s 12
f 71/93/71 69/89/69 66/86/66 
f 66/86/66 72/94/72 71/93/71 
f 65/85/65 77/101/77 79/103/79 
f 79/103/79 78/102/78 65/85/65 
s 9
f 80/106/80 30/107/30 29/108/29 
f 29/108/29 81/109/81 80/106/80 
f 17/96/17 31/110/31 73/95/73 
f 73/95/73 74/97/74 17/96/17 
s 10
f 82/111/82 35/112/35 34/113/34 
f 34/113/34 83/114/83 82/111/82 
f 76/100/76 36/115/36 26/105/26 
f 26/105/26 77/101/77 76/100/76 
s 8
f 37/116/37 36/115/36 76/100/76 
f 76/100/76 64/84/64 37/116/37 
s 10
f 70/92/70 39/117/39 38/118/38 
f 38/118/38 71/93/71 70/92/70 
f 71/93/71 38/118/38 11/90/11 
f 11/90/11 69/89/69 71/93/71 
s 12
f 68/88/68 84/119/84 85/120/85 
f 85/120/85 67/87/67 68/88/68 
s 10
f 10/91/10 42/121/42 84/119/84 
f 84/119/84 68/88/68 10/91/10 
f 86/122/86 44/123/44 37/116/37 
f 37/116/37 64/84/64 86/122/86 
s 12
f 80/106/80 81/109/81 87/124/87 
f 87/124/87 88/125/88 80/106/80 
f 67/87/67 66/86/66 69/89/69 
f 69/89/69 68/88/68 67/87/67 
s 8
f 74/97/74 73/95/73 72/94/72 
f 72/94/72 78/102/78 74/97/74 
s 12
f 78/102/78 72/94/72 66/86/66 
f 66/86/66 65/85/65 78/102/78 
s 9
f 82/111/82 81/109/81 29/108/29 
f 29/108/29 35/112/35 82/111/82 
f 73/95/73 31/110/31 39/117/39 
f 39/117/39 70/92/70 73/95/73 
s 12
f 89/126/89 90/127/90 91/128/91 
f 91/128/91 92/129/92 89/126/89 
s 8
f 86/130/86 64/131/64 93/132/93 
f 93/132/93 94/133/94 86/130/86 
f 86/130/86 94/133/94 95/134/95 
f 95/134/95 85/135/85 86/130/86 
f 85/136/85 95/137/95 96/138/96 
f 96/138/96 67/139/67 85/136/85 
f 64/131/64 67/139/67 96/138/96 
f 96/138/96 93/132/93 64/131/64 
f 94/133/94 93/132/93 89/126/89 
f 89/126/89 92/129/92 94/133/94 
f 91/140/91 95/134/95 94/133/94 
f 94/133/94 92/129/92 91/140/91 
f 90/141/90 96/138/96 95/137/95 
f 95/137/95 91/142/91 90/141/90 
f 93/132/93 96/138/96 90/141/90 
f 90/141/90 89/126/89 93/132/93 
s 12
f 87/143/87 83/144/83 86/130/86 
f 86/130/86 85/135/85 87/143/87 
s 10
f 83/114/83 34/113/34 44/123/44 
f 44/123/44 86/122/86 83/114/83 
s 12
f 84/119/84 88/125/88 87/124/87 
f 87/124/87 85/120/85 84/119/84 
s 8
f 82/145/82 83/144/83 97/146/97 
f 97/146/97 98/147/98 82/145/82 
f 82/145/82 98/147/98 99/148/99 
f 99/148/99 81/149/81 82/145/82 
f 87/143/87 81/150/81 99/151/99 
f 99/151/99 100/152/100 87/143/87 
f 83/144/83 87/143/87 100/152/100 
f 100/152/100 97/146/97 83/144/83 
f 98/147/98 97/146/97 61/81/61 
f 61/81/61 60/80/60 98/147/98 
f 99/148/99 98/147/98 60/80/60 
f 60/80/60 63/153/63 99/148/99 
f 100/152/100 99/151/99 63/154/63 
f 63/154/63 62/155/62 100/152/100 
f 61/81/61 97/146/97 100/152/100 
f 100/152/100 62/155/62 61/81/61 
s 10
f 59/156/59 30/107/30 80/106/80 
f 80/106/80 88/125/88 59/156/59 
f 42/121/42 59/156/59 88/125/88 
f 88/125/88 84/119/84 42/121/42 
# 196 faces

