# 3ds Max Wavefront OBJ Exporter v0.99 - (c)2007 guruware
# File Created: 18.05.2025 17:48:29

mtllib aaaaaaaaAAAAAAAAAA ????.mtl

#
# object Box001
#

v  19.5357 69.9470 5.5479
v  19.5357 69.9470 -5.5479
v  19.1115 74.6299 -5.5056
v  19.1115 74.6299 5.5056
v  0.0000 55.0480 -13.2932
v  0.0000 81.7163 -13.2932
v  13.2932 81.7163 -13.2932
v  13.2932 55.0480 -13.2932
v  12.9906 -2.6066 -4.7786
v  12.9906 -2.6066 4.7786
v  5.1706 -2.7093 4.7786
v  5.1706 -2.7093 -4.7786
v  8.9011 100.6301 8.9011
v  8.9011 100.6301 -8.9011
v  0.0000 100.6301 -8.9011
v  0.0000 100.6301 8.9011
v  13.2932 55.0480 13.2932
v  13.2932 80.7002 13.2932
v  0.0000 80.7002 13.2932
v  0.0000 55.0480 13.2932
v  8.9011 83.5149 8.9011
v  0.0000 83.5149 8.9011
v  8.9011 83.5149 -8.9011
v  0.0000 83.5149 -8.9011
v  8.9011 92.9167 8.9011
v  0.0000 92.9167 8.9011
v  8.9011 92.9167 -8.9011
v  0.0000 92.9167 -8.9011
v  13.2932 65.7871 -6.4953
v  13.2932 65.7871 6.4953
v  13.2932 79.6106 -7.4527
v  13.2932 79.6106 7.4527
v  16.7774 40.2943 4.4861
v  16.7774 40.2943 -4.4861
v  21.8877 40.8982 -4.4861
v  21.8877 40.8982 4.4861
v  15.7903 54.9287 -5.5264
v  15.7903 54.9287 5.5264
v  21.4868 57.3737 -5.0359
v  21.4868 57.3737 5.0359
v  10.2261 55.0480 10.2261
v  10.2261 55.0480 -10.2261
v  0.0000 55.0480 10.2261
v  0.0000 55.0480 -10.2261
v  12.0445 46.3719 10.2261
v  12.0445 46.3719 -10.2261
v  0.0000 40.9848 10.2261
v  0.0000 40.9848 -10.2261
v  12.2958 21.2575 7.5099
v  12.2918 21.6615 -6.7617
v  0.0000 92.9167 17.6907
v  8.9011 92.9167 17.6907
v  8.9011 94.4300 17.6907
v  0.0000 94.4300 17.6907
v  8.9011 94.4300 -8.9011
v  8.9011 94.4300 8.9011
v  0.0000 94.4300 -8.9011
v  0.0000 94.4300 8.9011
v  2.7318 20.1640 -6.7617
v  2.7166 19.7563 7.5111
v  -19.5357 69.9470 5.5479
v  -19.1115 74.6299 5.5056
v  -19.1115 74.6299 -5.5056
v  -19.5357 69.9470 -5.5479
v  -13.2932 55.0480 -13.2932
v  -13.2932 81.7163 -13.2932
v  -12.9906 -2.6066 -4.7786
v  -5.1706 -2.7093 -4.7786
v  -5.1706 -2.7093 4.7786
v  -12.9906 -2.6066 4.7786
v  -8.9011 100.6301 8.9011
v  -8.9011 100.6301 -8.9011
v  -13.2932 55.0480 13.2932
v  -13.2932 80.7002 13.2932
v  -8.9011 83.5149 8.9011
v  -8.9011 83.5149 -8.9011
v  -8.9011 92.9167 8.9011
v  -8.9011 92.9167 -8.9011
v  -13.2932 65.7871 6.4953
v  -13.2932 65.7871 -6.4953
v  -13.2932 79.6106 -7.4527
v  -13.2932 79.6106 7.4527
v  -16.7774 40.2943 4.4861
v  -21.8877 40.8982 4.4861
v  -21.8877 40.8982 -4.4861
v  -16.7774 40.2943 -4.4861
v  -15.7903 54.9287 5.5264
v  -15.7903 54.9287 -5.5264
v  -21.4868 57.3737 -5.0359
v  -21.4868 57.3737 5.0359
v  -10.2261 55.0480 -10.2261
v  -10.2261 55.0480 10.2261
v  -12.0445 46.3719 -10.2261
v  -12.0445 46.3719 10.2261
v  -12.2918 21.6615 -6.7617
v  -12.2958 21.2575 7.5099
v  -8.9011 94.4300 17.6907
v  -8.9011 92.9167 17.6907
v  -8.9011 94.4300 8.9011
v  -8.9011 94.4300 -8.9011
v  -2.7166 19.7563 7.5111
v  -2.7318 20.1640 -6.7617
# 102 vertices

vn 0.9959 0.0902 -0.0000
vn 0.0000 0.0000 -1.0000
vn 0.0131 -0.9999 -0.0000
vn 0.0000 1.0000 -0.0000
vn 0.0000 0.0000 1.0000
vn 0.0000 0.8419 0.5396
vn 0.2699 0.9156 0.2981
vn 0.2919 0.9108 0.2919
vn 0.2154 0.9602 -0.1779
vn 0.2208 0.9582 -0.1818
vn 0.0000 0.9254 -0.3790
vn 1.0000 0.0000 -0.0000
vn 0.1174 -0.9931 -0.0000
vn 0.2649 -0.0666 -0.9620
vn 0.1361 0.0213 -0.9905
vn 0.6503 0.7597 -0.0000
vn 0.1937 -0.0678 0.9787
vn 0.3477 0.0400 0.9368
vn -0.9746 -0.2241 -0.0000
vn 0.1600 -0.0154 -0.9870
vn 0.1123 -0.0627 -0.9917
vn 0.9882 0.1533 -0.0000
vn 0.1123 -0.0627 0.9917
vn 0.1600 -0.0154 0.9870
vn 0.0000 -1.0000 -0.0000
vn 0.0000 -1.0000 0.0000
vn 0.9787 0.2051 -0.0000
vn 0.0000 -0.0743 0.9972
vn 0.0169 -0.0459 0.9988
vn 0.0244 -0.0546 -0.9982
vn -0.0000 -0.0888 -0.9961
vn 0.9999 0.0100 -0.0000
vn 0.9999 0.0100 0.0000
vn -0.9915 -0.1301 -0.0000
vn -0.9920 -0.1263 -0.0047
vn 0.0369 -0.1535 -0.9875
vn 0.0252 -0.1609 -0.9867
vn 0.0279 -0.1111 0.9934
vn 0.0169 -0.1073 0.9941
vn -0.9943 -0.1064 -0.0041
vn -0.9941 -0.1086 -0.0000
vn 0.0127 -0.0811 -0.9966
vn 0.0011 -0.0863 -0.9963
vn 0.9996 0.0290 0.0005
vn 0.9996 0.0288 -0.0000
vn 0.0187 -0.1187 0.9928
vn 0.0015 -0.1137 0.9935
vn -0.9977 -0.0673 -0.0000
vn 0.0083 -0.0703 -0.9975
vn 0.0989 -0.0308 -0.9946
vn 0.9997 0.0243 -0.0000
vn 0.0083 -0.0703 0.9975
vn 0.0989 -0.0308 0.9946
vn -0.9959 0.0902 -0.0000
vn -0.0131 -0.9999 -0.0000
vn -0.2919 0.9108 0.2919
vn -0.2699 0.9156 0.2981
vn -0.2208 0.9582 -0.1818
vn -0.2154 0.9602 -0.1779
vn -1.0000 0.0000 -0.0000
vn -0.1174 -0.9931 -0.0000
vn -0.1361 0.0213 -0.9905
vn -0.2649 -0.0666 -0.9620
vn -0.6503 0.7597 -0.0000
vn -0.3477 0.0400 0.9368
vn -0.1937 -0.0678 0.9787
vn 0.9746 -0.2241 -0.0000
vn -0.1123 -0.0627 -0.9917
vn -0.1600 -0.0154 -0.9870
vn -0.9882 0.1533 -0.0000
vn -0.1600 -0.0154 0.9870
vn -0.1123 -0.0627 0.9917
vn -0.0000 -1.0000 -0.0000
vn -0.0000 -1.0000 0.0000
vn -0.9787 0.2051 -0.0000
vn -0.0169 -0.0459 0.9988
vn -0.0244 -0.0546 -0.9982
vn -0.9999 0.0100 0.0000
vn -0.9999 0.0100 -0.0000
vn 0.9920 -0.1263 -0.0047
vn 0.9915 -0.1301 -0.0000
vn -0.0252 -0.1609 -0.9867
vn -0.0369 -0.1535 -0.9875
vn -0.0169 -0.1073 0.9941
vn -0.0279 -0.1111 0.9934
vn 0.9941 -0.1086 -0.0000
vn 0.9943 -0.1064 -0.0041
vn -0.0011 -0.0863 -0.9963
vn -0.0127 -0.0811 -0.9966
vn -0.9996 0.0288 -0.0000
vn -0.9996 0.0290 0.0005
vn -0.0015 -0.1137 0.9935
vn -0.0187 -0.1187 0.9928
vn 0.9977 -0.0673 -0.0000
vn -0.0989 -0.0308 -0.9946
vn -0.0083 -0.0703 -0.9975
vn -0.9997 0.0243 -0.0000
vn -0.0989 -0.0308 0.9946
vn -0.0083 -0.0703 0.9975
# 99 vertex normals

vt 0.7649 0.6587 0.0000
vt 0.7346 0.6102 0.0000
vt 0.7560 0.5901 0.0000
vt 0.7912 0.6440 0.0000
vt 0.5697 0.5557 0.0000
vt 0.7277 0.4433 0.0000
vt 0.7676 0.5153 0.0000
vt 0.6225 0.6222 0.0000
vt 0.3827 0.0066 0.0000
vt 0.4443 0.0000 0.0000
vt 0.4496 0.0504 0.0000
vt 0.3881 0.0569 0.0000
vt 0.8605 0.1585 0.0000
vt 0.8930 0.0479 0.0000
vt 0.9483 0.0642 0.0000
vt 0.9157 0.1748 0.0000
vt 0.7267 0.7663 0.0000
vt 0.8607 0.6576 0.0000
vt 0.9210 0.7143 0.0000
vt 0.7778 0.8345 0.0000
vt 0.8860 0.6291 0.0000
vt 0.9447 0.6775 0.0000
vt 0.7979 0.5020 0.0000
vt 0.7663 0.4312 0.0000
vt 0.3630 0.1939 0.0000
vt 0.3945 0.1454 0.0000
vt 0.4454 0.1786 0.0000
vt 0.4138 0.2270 0.0000
vt 0.4577 0.0485 0.0000
vt 0.5085 0.0816 0.0000
vt 0.4893 0.0000 0.0000
vt 0.5401 0.0331 0.0000
vt 0.7014 0.6093 0.0000
vt 0.7603 0.6931 0.0000
vt 0.7768 0.5484 0.0000
vt 0.8376 0.6358 0.0000
vt 0.5967 0.0510 0.0000
vt 0.5420 0.0314 0.0000
vt 0.5532 0.0000 0.0000
vt 0.6079 0.0196 0.0000
vt 0.0356 0.6296 0.0000
vt 0.1010 0.5964 0.0000
vt 0.1381 0.6606 0.0000
vt 0.0791 0.7029 0.0000
vt 0.0000 0.5950 0.0000
vt 0.0757 0.5633 0.0000
vt 0.0936 0.7519 0.0000
vt 0.1551 0.6993 0.0000
vt 0.2011 0.7457 0.0000
vt 0.1440 0.8046 0.0000
vt 0.7077 0.7750 0.0000
vt 0.6085 0.6387 0.0000
vt 0.7543 0.8455 0.0000
vt 0.5531 0.5755 0.0000
vt 0.2125 0.0378 0.0000
vt 0.3293 0.1129 0.0000
vt 0.2945 0.1575 0.0000
vt 0.1856 0.0879 0.0000
vt 0.3857 0.1493 0.0000
vt 0.3378 0.2295 0.0000
vt 0.1549 0.0000 0.0000
vt 0.1022 0.0804 0.0000
vt 0.1944 0.2852 0.0000
vt 0.1171 0.2328 0.0000
vt 0.8852 0.2774 0.0000
vt 0.8300 0.2608 0.0000
vt 0.8328 0.2514 0.0000
vt 0.8880 0.2680 0.0000
vt 0.0216 0.1067 0.0000
vt 0.0655 0.0000 0.0000
vt 0.0745 0.0037 0.0000
vt 0.0307 0.1104 0.0000
vt 0.9070 0.0000 0.0000
vt 0.9623 0.0162 0.0000
vt 0.9595 0.0256 0.0000
vt 0.9042 0.0094 0.0000
vt 0.9043 0.2134 0.0000
vt 0.8491 0.1969 0.0000
vt 0.1117 0.0190 0.0000
vt 0.0678 0.1256 0.0000
vt 0.4200 0.3336 0.0000
vt 0.2992 0.4005 0.0000
vt 0.2389 0.3302 0.0000
vt 0.0576 0.2123 0.0000
vt 0.1765 0.4852 0.0000
vt 0.1372 0.4375 0.0000
vt 0.0448 0.3737 0.0000
vt 0.0000 0.3500 0.0000
vt 0.0972 0.4065 0.0000
vt 0.8688 0.3319 0.0000
vt 0.8136 0.3153 0.0000
vt 0.0091 0.1630 0.0000
vt 0.0000 0.1593 0.0000
vt 0.1893 0.5586 0.0000
vt 0.2153 0.6058 0.0000
vt 0.1767 0.5304 0.0000
vt 0.2328 0.6289 0.0000
vt 0.2737 0.6684 0.0000
vt 0.4037 0.6007 0.0000
vt 0.3839 0.6222 0.0000
vt 0.3462 0.5699 0.0000
vt 0.3715 0.5534 0.0000
vt 0.3443 0.3785 0.0000
vt 0.4006 0.4426 0.0000
vt 0.2706 0.5661 0.0000
vt 0.2065 0.5144 0.0000
vt 0.2720 0.0000 0.0000
vt 0.3173 0.0225 0.0000
vt 0.2898 0.0780 0.0000
vt 0.2444 0.0554 0.0000
vt 0.9969 0.5053 0.0000
vt 0.9393 0.5062 0.0000
vt 0.9376 0.3908 0.0000
vt 0.9953 0.3901 0.0000
vt 0.5142 0.5793 0.0000
vt 0.5721 0.6412 0.0000
vt 0.4290 0.7621 0.0000
vt 0.3834 0.6932 0.0000
vt 0.3883 0.7788 0.0000
vt 0.3515 0.7112 0.0000
vt 0.2505 0.5940 0.0000
vt 0.1876 0.5501 0.0000
vt 0.8590 0.4906 0.0000
vt 0.8049 0.4631 0.0000
vt 0.8312 0.4115 0.0000
vt 0.8852 0.4390 0.0000
vt 0.8836 0.3084 0.0000
vt 0.9377 0.3359 0.0000
vt 0.9098 0.2568 0.0000
vt 0.9639 0.2843 0.0000
vt 0.4367 0.5982 0.0000
vt 0.3727 0.5183 0.0000
vt 0.3004 0.5815 0.0000
vt 0.3663 0.6651 0.0000
vt 0.3837 0.0426 0.0000
vt 0.3593 0.0653 0.0000
vt 0.3197 0.0227 0.0000
vt 0.3442 0.0000 0.0000
vt 0.6498 0.7758 0.0000
vt 0.6286 0.8532 0.0000
vt 0.5598 0.8326 0.0000
vt 0.5774 0.7611 0.0000
vt 0.5947 0.7234 0.0000
vt 0.6760 0.7368 0.0000
vt 0.6355 0.8982 0.0000
vt 0.6146 0.9651 0.0000
vt 0.5379 0.9353 0.0000
vt 0.5588 0.8741 0.0000
vt 0.4186 0.4324 0.0000
vt 0.5270 0.5616 0.0000
vt 0.5871 0.6201 0.0000
vt 0.3667 0.3657 0.0000
vt 0.4674 0.4256 0.0000
vt 0.4881 0.3726 0.0000
vt 0.6116 0.4106 0.0000
vt 0.6002 0.4660 0.0000
vt 0.6946 0.3970 0.0000
vt 0.6644 0.4854 0.0000
vt 0.4012 0.4062 0.0000
vt 0.4284 0.3140 0.0000
vt 0.5542 0.2266 0.0000
vt 0.6442 0.2516 0.0000
vt 0.9412 0.6132 0.0000
vt 0.9410 0.6034 0.0000
vt 0.9986 0.6023 0.0000
vt 0.9988 0.6120 0.0000
vt 0.8329 0.1256 0.0000
vt 0.8238 0.1220 0.0000
vt 0.8659 0.0147 0.0000
vt 0.8750 0.0183 0.0000
vt 0.9946 0.3401 0.0000
vt 0.9948 0.3499 0.0000
vt 0.9371 0.3507 0.0000
vt 0.9370 0.3409 0.0000
vt 0.9399 0.5464 0.0000
vt 0.9976 0.5454 0.0000
vt 0.7864 0.1073 0.0000
vt 0.8285 0.0000 0.0000
vt 0.7073 0.2564 0.0000
vt 0.7999 0.2569 0.0000
vt 0.8271 0.3922 0.0000
vt 0.5000 0.1945 0.0000
vt 0.7232 0.1094 0.0000
vt 0.7850 0.1085 0.0000
vt 0.5677 0.0615 0.0000
vt 0.6148 0.0803 0.0000
vt 0.6736 0.0990 0.0000
vt 0.9424 0.6701 0.0000
vt 1.0000 0.6689 0.0000
vt 0.8121 0.1786 0.0000
vt 0.8030 0.1750 0.0000
vt 0.4827 0.7475 0.0000
vt 0.4687 0.8046 0.0000
vt 0.4889 0.7146 0.0000
vt 0.4594 0.8393 0.0000
vt 0.4395 0.8953 0.0000
# 196 texture coords

o Box001
g Box001
usemtl wire_225088199
s 16
f 1/1/1 2/2/1 3/3/1 
f 3/3/1 4/4/1 1/1/1 
s 32
f 5/5/2 6/6/2 7/7/2 
f 7/7/2 8/8/2 5/5/2 
s 2
f 9/9/3 10/10/3 11/11/3 
f 11/11/3 12/12/3 9/9/3 
s 4
f 13/13/4 14/14/4 15/15/4 
f 15/15/4 16/16/4 13/13/4 
s 8
f 17/17/5 18/18/5 19/19/5 
f 19/19/5 20/20/5 17/17/5 
s 4
f 19/19/6 18/18/7 21/21/8 
f 21/21/8 22/22/6 19/19/6 
f 18/18/7 7/7/9 23/23/10 
f 23/23/10 21/21/8 18/18/7 
f 7/7/9 6/6/11 24/24/11 
f 24/24/11 23/23/10 7/7/9 
s 1
f 22/25/5 21/26/5 25/27/5 
f 25/27/5 26/28/5 22/25/5 
s off
f 21/26/12 23/29/12 27/30/12 
f 27/30/12 25/27/12 21/26/12 
s 1
f 23/29/2 24/31/2 28/32/2 
f 28/32/2 27/30/2 23/29/2 
s 16
f 17/17/12 8/8/12 29/33/12 
f 29/33/12 30/34/12 17/17/12 
f 8/8/12 7/7/12 31/35/12 
f 31/35/12 29/33/12 8/8/12 
f 7/7/12 18/18/12 32/36/12 
f 32/36/12 31/35/12 7/7/12 
f 18/18/12 17/17/12 30/34/12 
f 30/34/12 32/36/12 18/18/12 
s off
f 33/37/13 34/38/13 35/39/13 
f 35/39/13 36/40/13 33/37/13 
f 29/33/14 31/35/14 3/3/14 
f 3/3/15 2/2/15 29/33/15 
f 31/35/16 32/36/16 4/4/16 
f 4/4/16 3/3/16 31/35/16 
f 32/36/17 30/34/17 1/1/17 
f 1/1/18 4/4/18 32/36/18 
f 29/41/19 37/42/19 38/43/19 
f 38/43/19 30/44/19 29/41/19 
f 29/41/20 2/45/20 39/46/20 
f 39/46/21 37/42/21 29/41/21 
f 1/47/22 40/48/22 39/49/22 
f 39/49/22 2/50/22 1/47/22 
f 30/44/23 38/43/23 40/48/23 
f 40/48/24 1/47/24 30/44/24 
s 2
f 8/8/25 17/17/26 41/51/26 
f 41/51/26 42/52/25 8/8/25 
f 17/17/26 20/20/26 43/53/26 
f 43/53/26 41/51/26 17/17/26 
f 5/5/25 8/8/25 42/52/25 
f 42/52/25 44/54/25 5/5/25 
s off
f 42/55/27 41/56/27 45/57/27 
f 45/57/27 46/58/27 42/55/27 
s 1
f 41/56/5 43/59/5 47/60/28 
f 47/60/28 45/57/29 41/56/5 
f 44/61/2 42/55/2 46/58/30 
f 46/58/30 48/62/31 44/61/2 
s off
f 46/58/32 45/57/32 49/63/32 
f 49/63/33 50/64/33 46/58/33 
s 1
f 51/65/5 52/66/5 53/67/5 
f 53/67/5 54/68/5 51/65/5 
s off
f 25/69/12 27/70/12 55/71/12 
f 55/71/12 56/72/12 25/69/12 
s 1
f 27/73/2 28/74/2 57/75/2 
f 57/75/2 55/76/2 27/73/2 
f 58/77/5 56/78/5 13/13/5 
f 13/13/5 16/16/5 58/77/5 
s off
f 56/72/12 55/71/12 14/79/12 
f 14/79/12 13/80/12 56/72/12 
s 1
f 55/76/2 57/75/2 15/15/2 
f 15/15/2 14/14/2 55/76/2 
s off
f 47/60/34 48/81/34 59/82/34 
f 59/82/35 60/83/35 47/60/35 
s 1
f 48/62/31 46/58/30 50/64/36 
f 50/64/36 59/84/37 48/62/31 
f 45/57/29 47/60/28 60/83/38 
f 60/83/38 49/63/39 45/57/29 
s off
f 60/83/40 59/82/40 12/85/40 
f 12/85/41 11/86/41 60/83/41 
f 59/84/42 50/64/42 9/87/42 
f 9/87/43 12/88/43 59/84/43 
f 50/64/44 49/63/44 10/89/44 
f 10/89/45 9/87/45 50/64/45 
f 49/63/46 60/83/46 11/86/46 
f 11/86/47 10/89/47 49/63/47 
f 26/90/25 25/91/25 52/66/25 
f 52/66/25 51/65/25 26/90/25 
f 25/69/12 56/72/12 53/92/12 
f 53/92/12 52/93/12 25/69/12 
f 56/78/4 58/77/4 54/68/4 
f 54/68/4 53/67/4 56/78/4 
f 34/94/48 33/95/48 38/43/48 
f 38/43/48 37/42/48 34/94/48 
f 35/96/49 34/94/49 37/42/49 
f 37/42/50 39/46/50 35/96/50 
f 36/97/51 35/98/51 39/49/51 
f 39/49/51 40/48/51 36/97/51 
f 38/43/52 33/95/52 36/97/52 
f 36/97/53 40/48/53 38/43/53 
s 16
f 61/99/54 62/100/54 63/101/54 
f 63/101/54 64/102/54 61/99/54 
s 32
f 5/103/2 65/104/2 66/105/2 
f 66/105/2 6/106/2 5/103/2 
s 2
f 67/107/55 68/108/55 69/109/55 
f 69/109/55 70/110/55 67/107/55 
s 4
f 71/111/4 16/112/4 15/113/4 
f 15/113/4 72/114/4 71/111/4 
s 8
f 73/115/5 20/116/5 19/117/5 
f 19/117/5 74/118/5 73/115/5 
s 4
f 19/117/6 22/119/6 75/120/56 
f 75/120/56 74/118/57 19/117/6 
f 74/118/57 75/120/56 76/121/58 
f 76/121/58 66/105/59 74/118/57 
f 66/105/59 76/121/58 24/122/11 
f 24/122/11 6/106/11 66/105/59 
s 1
f 22/123/5 26/124/5 77/125/5 
f 77/125/5 75/126/5 22/123/5 
s off
f 75/126/60 77/125/60 78/127/60 
f 78/127/60 76/128/60 75/126/60 
s 1
f 76/128/2 78/127/2 28/129/2 
f 28/129/2 24/130/2 76/128/2 
s 16
f 73/115/60 79/131/60 80/132/60 
f 80/132/60 65/104/60 73/115/60 
f 65/104/60 80/132/60 81/133/60 
f 81/133/60 66/105/60 65/104/60 
f 66/105/60 81/133/60 82/134/60 
f 82/134/60 74/118/60 66/105/60 
f 74/118/60 82/134/60 79/131/60 
f 79/131/60 73/115/60 74/118/60 
s off
f 83/135/61 84/136/61 85/137/61 
f 85/137/61 86/138/61 83/135/61 
f 80/132/62 64/102/62 63/101/62 
f 63/101/63 81/133/63 80/132/63 
f 81/133/64 63/101/64 62/100/64 
f 62/100/64 82/134/64 81/133/64 
f 82/134/65 62/100/65 61/99/65 
f 61/99/66 79/131/66 82/134/66 
f 80/139/67 79/140/67 87/141/67 
f 87/141/67 88/142/67 80/139/67 
f 80/139/68 88/142/68 89/143/68 
f 89/143/69 64/144/69 80/139/69 
f 61/145/70 64/146/70 89/147/70 
f 89/147/70 90/148/70 61/145/70 
f 79/140/71 61/145/71 90/148/71 
f 90/148/72 87/141/72 79/140/72 
s 2
f 65/104/73 91/149/73 92/150/74 
f 92/150/74 73/115/74 65/104/73 
f 73/115/74 92/150/74 43/151/26 
f 43/151/26 20/116/26 73/115/74 
f 5/103/25 44/152/25 91/149/73 
f 91/149/73 65/104/73 5/103/25 
s off
f 91/153/75 93/154/75 94/155/75 
f 94/155/75 92/156/75 91/153/75 
s 1
f 92/156/5 94/155/76 47/157/28 
f 47/157/28 43/158/5 92/156/5 
f 44/159/2 48/160/31 93/154/77 
f 93/154/77 91/153/2 44/159/2 
s off
f 93/154/78 95/161/78 96/162/78 
f 96/162/79 94/155/79 93/154/79 
s 1
f 51/163/5 54/164/5 97/165/5 
f 97/165/5 98/166/5 51/163/5 
s off
f 77/167/60 99/168/60 100/169/60 
f 100/169/60 78/170/60 77/167/60 
s 1
f 78/171/2 100/172/2 57/173/2 
f 57/173/2 28/174/2 78/171/2 
f 58/175/5 16/112/5 71/111/5 
f 71/111/5 99/176/5 58/175/5 
s off
f 99/168/60 71/177/60 72/178/60 
f 72/178/60 100/169/60 99/168/60 
s 1
f 100/172/2 72/114/2 15/113/2 
f 15/113/2 57/173/2 100/172/2 
s off
f 47/157/80 101/179/80 102/180/80 
f 102/180/81 48/181/81 47/157/81 
s 1
f 48/160/31 102/182/82 95/161/83 
f 95/161/83 93/154/77 48/160/31 
f 94/155/76 96/162/84 101/179/85 
f 101/179/85 47/157/28 94/155/76 
s off
f 101/179/86 69/183/86 68/184/86 
f 68/184/87 102/180/87 101/179/87 
f 102/182/88 68/185/88 67/186/88 
f 67/186/89 95/161/89 102/182/89 
f 95/161/90 67/186/90 70/187/90 
f 70/187/91 96/162/91 95/161/91 
f 96/162/92 70/187/92 69/183/92 
f 69/183/93 101/179/93 96/162/93 
f 26/188/25 51/163/25 98/166/25 
f 98/166/25 77/189/25 26/188/25 
f 77/167/60 98/190/60 97/191/60 
f 97/191/60 99/168/60 77/167/60 
f 99/176/4 97/165/4 54/164/4 
f 54/164/4 58/175/4 99/176/4 
f 86/192/94 88/142/94 87/141/94 
f 87/141/94 83/193/94 86/192/94 
f 85/194/95 89/143/95 88/142/95 
f 88/142/96 86/192/96 85/194/96 
f 84/195/97 90/148/97 89/147/97 
f 89/147/97 85/196/97 84/195/97 
f 87/141/98 90/148/98 84/195/98 
f 84/195/99 83/193/99 87/141/99 
# 200 faces

